#!OML:ASF F:\VICON\USERDATA\INSTALL\Justin_Nancy\Justin_Nancy.ASF
:FULLY-SPECIFIED
:DEGREES
64
root 0.291324 18.0146 -5.23261 5.21938 3.80759 -2.50314
lowerback 9.31723 1.42396 5.38306
upperback -0.789838 2.67497 2.79273
thorax -5.95773 1.18792 -0.477448
lowerneck -22.0894 -5.34924 -9.65378
upperneck 14.6612 -5.58513 6.59986
head 8.64993 -2.48779 3.03802
rclavicle -8.94531e-016 3.97569e-015
rhumerus -40.4344 9.68207 -87.8545
rradius 125.932
rwrist -15.8671
rhand -3.61819 21.7283
rfingers 7.12502
rthumb 22.1206 -7.02626
lclavicle -8.94531e-016 3.97569e-015
lhumerus -52.6773 -6.05084 96.8935
lradius 112.543
lwrist 19.4027
lhand -24.7409 12.6098
lfingers 7.12502
lthumb 1.76185 42.5823
rfemur 4.03605 0.772217 29.453
rtibia 28.9141
rfoot 7.79518 -3.3653
rtoes -12.7641
lfemur -36.3567 7.0623 -19.2545
ltibia 68.5504
lfoot -0.545961 -12.3356
ltoes -6.21315
65
root 0.30392 18.1052 -4.80435 5.22014 4.08739 -2.27404
lowerback 8.60524 1.65296 5.29205
upperback -0.719236 2.91212 2.82465
thorax -5.47442 1.32124 -0.400906
lowerneck -21.9455 -5.47883 -10.0174
upperneck 14.6078 -5.66235 6.60854
head 8.6254 -2.54668 3.08912
rclavicle 4.05521e-014 -7.15625e-015
rhumerus -40.2817 9.93364 -87.1177
rradius 126.067
rwrist -14.7807
rhand -3.65002 22.0057
rfingers 7.12502
rthumb 22.09 -6.75249
lclavicle 4.05521e-014 -7.15625e-015
lhumerus -53.3615 -5.69176 96.8992
lradius 112.941
lwrist 19.1675
lhand -24.8842 13.0337
lfingers 7.12502
lthumb 1.62337 43.0073
rfemur 5.75393 0.655533 28.909
rtibia 27.1454
rfoot 11.5756 -2.61428
rtoes -12.3773
lfemur -36.2673 7.02008 -20.1958
ltibia 64.8877
lfoot -0.3019 -10.9296
ltoes -4.52246
66
root 0.315836 18.199 -4.36599 5.24856 4.40617 -2.03601
lowerback 8.1582 1.76066 5.35249
upperback -0.871166 3.02868 2.69371
thorax -5.36579 1.37606 -0.571766
lowerneck -21.7323 -5.46407 -10.2584
upperneck 14.7112 -5.6446 6.85286
head 8.63865 -2.53125 3.21831
rclavicle 1.89839e-014 2.3059e-014
rhumerus -40.8596 10.122 -86.7871
rradius 126.534
rwrist -14.3169
rhand -3.70776 22.06
rfingers 7.12502
rthumb 22.0346 -6.70478
lclavicle 1.89839e-014 2.3059e-014
lhumerus -54.1329 -5.34674 96.6181
lradius 113.198
lwrist 19.0989
lhand -24.6115 13.4135
lfingers 7.12502
lthumb 1.88678 43.3849
rfemur 7.37939 0.855093 28.4428
rtibia 25.4642
rfoot 15.4038 -2.40034
rtoes -8.80559
lfemur -35.9805 6.82069 -21.0562
ltibia 60.9913
lfoot -0.431285 -9.58272
ltoes -4.59829
67
root 0.325712 18.2988 -3.92104 5.35087 4.8315 -1.90122
lowerback 8.01099 1.79686 5.58404
upperback -1.33687 3.10487 2.49426
thorax -5.74746 1.38715 -0.919548
lowerneck -21.4808 -5.36748 -10.1296
upperneck 15.1476 -5.60726 6.88915
head 8.73932 -2.50991 3.22164
rclavicle -1.72943e-014 -2.94201e-014
rhumerus -41.8367 10.1699 -86.7104
rradius 127.02
rwrist -14.5166
rhand -3.56572 21.8813
rfingers 7.12502
rthumb 22.1709 -6.86736
lclavicle -1.72943e-014 -2.94201e-014
lhumerus -55.2467 -5.12856 96.2041
lradius 113.387
lwrist 19.2594
lhand -24.6673 13.7995
lfingers 7.12502
lthumb 1.83285 43.7714
rfemur 8.82394 1.15751 28.181
rtibia 23.975
rfoot 19.2434 -2.48856
rtoes -3.3697
lfemur -35.6159 6.49514 -21.6899
ltibia 56.9356
lfoot -0.401845 -8.549
ltoes -6.74963
68
root 0.33214 18.3867 -3.48437 5.55888 5.33604 -1.77133
lowerback 7.05745 1.87024 5.68667
upperback -1.26967 3.12723 2.40103
thorax -5.12259 1.41217 -1.03751
lowerneck -21.7544 -5.41673 -10.0636
upperneck 15.4039 -5.68071 6.89995
head 8.87918 -2.53504 3.20276
rclavicle 6.36111e-015 -2.22639e-014
rhumerus -41.5889 10.2794 -86.3205
rradius 127.247
rwrist -14.5986
rhand -3.48579 21.5005
rfingers 7.12502
rthumb 22.2477 -7.23896
lclavicle 6.36111e-015 -2.22639e-014
lhumerus -55.607 -5.05058 95.9363
lradius 113.64
lwrist 19.5737
lhand -24.8778 13.8007
lfingers 7.12502
lthumb 1.62961 43.7742
rfemur 9.97704 1.41991 28.0028
rtibia 22.8917
rfoot 22.4086 -2.37725
rtoes 1.42384
lfemur -35.289 5.85731 -22.2125
ltibia 52.8132
lfoot 0.16271 -7.4189
ltoes -9.92783
69
root 0.339521 18.4549 -3.05699 5.8499 5.80441 -1.86864
lowerback 6.30819 1.90851 5.97414
upperback -1.39564 3.1489 2.39836
thorax -4.81412 1.42179 -1.17388
lowerneck -21.9634 -5.46436 -10.2634
upperneck 15.802 -5.72472 7.11049
head 9.06991 -2.54285 3.30309
rclavicle -4.62174e-014 -1.43125e-014
rhumerus -41.549 10.5198 -86.0473
rradius 127.487
rwrist -14.3935
rhand -3.32583 21.5102
rfingers 7.12502
rthumb 22.4012 -7.21093
lclavicle -4.62174e-014 -1.43125e-014
lhumerus -56.2506 -4.86921 95.6143
lradius 114.148
lwrist 20.0586
lhand -24.7522 14.1179
lfingers 7.12502
lthumb 1.75088 44.0904
rfemur 10.6962 1.85368 28.1273
rtibia 22.3543
rfoot 24.5699 -2.4583
rtoes 5.57725
lfemur -35.0049 4.93253 -22.343
ltibia 48.6772
lfoot 0.390983 -6.22645
ltoes -13.2781
70
root 0.346119 18.5102 -2.63447 6.14074 6.16614 -1.97425
lowerback 5.69416 1.99212 6.26638
upperback -1.54759 3.23691 2.33105
thorax -4.60098 1.46023 -1.39081
lowerneck -22.3068 -5.56485 -10.3472
upperneck 16.2857 -5.8723 7.33414
head 9.32175 -2.58735 3.37377
rclavicle 1.50082e-014 4.6118e-014
rhumerus -41.7261 10.4304 -85.8043
rradius 127.755
rwrist -14.0224
rhand -3.11455 22.7386
rfingers 7.12502
rthumb 22.604 -5.95788
lclavicle 1.50082e-014 4.6118e-014
lhumerus -56.8525 -4.96277 95.2583
lradius 114.65
lwrist 20.5917
lhand -24.38 14.2519
lfingers 7.12502
lthumb 2.11039 44.2212
rfemur 11.1346 2.65794 28.4009
rtibia 22.4988
rfoot 25.4381 -2.54478
rtoes 6.44723
lfemur -34.677 4.03225 -22.3442
ltibia 44.5332
lfoot 0.524977 -5.50879
ltoes -15.6596
